            <svg viewBox="0 0 300 300" data-background-color="#ede1d1"
                 preserveAspectRatio="xMidYMid meet" height="300" width="300"
                 xmlns="http://www.w3.org/2000/svg"
                 xmlnsXlink="http://www.w3.org/1999/xlink">

                <g transform="matrix(1,0,0,1,111.71285602334359,90.50252531694167)">
                    <svg
                        viewBox="0 0 56.57428795331281 98.99494936611666"
                        height="98.99494936611666"
                        width="56.57428795331281">
                        <g id="icon-0">
                            <svg
                                xmlns="http://www.w3.org/2000/svg"
                                viewBox="15.998374938964844 4 32.00325012207031 56"
                                x="0" y="0"
                                height="98.99494936611666"
                                width="56.57428795331281"
                                className="icon-o-0"
                                data-fill-palette-color="accent"
                                id="o-0">
                                <g fill="#d89c76"
                                   data-fill-palette-color="accent">
                                    <path
                                        d="M37 47A5 5 0 0 1 27 47V46H24V60H40V46H37Z"
                                        fill="#d89c76"
                                        data-fill-palette-color="accent"></path>
                                    <rect x="18"
                                          y="46"
                                          width="4"
                                          height="8"
                                          fill="#d89c76"
                                          data-fill-palette-color="accent"></rect>
                                    <rect x="29"
                                          y="40"
                                          width="6"
                                          height="4"
                                          fill="#d89c76"
                                          data-fill-palette-color="accent"></rect>
                                    <path
                                        d="M29 47A3 3 0 0 0 35 47V46H29Z"
                                        fill="#d89c76"
                                        data-fill-palette-color="accent"></path>
                                    <rect x="18"
                                          y="56"
                                          width="4"
                                          height="4"
                                          fill="#d89c76"
                                          data-fill-palette-color="accent"></rect>
                                    <path
                                        d="M35 4H29A9.013 9.013 0 0 0 20.055 12H43.945A9.013 9.013 0 0 0 35 4M25 10H23V8H25ZM29 7H27V5H29ZM33 10H31V8H33ZM37 7H35V5H37ZM41 10H39V8H41Z"
                                        fill="#d89c76"
                                        data-fill-palette-color="accent"></path>
                                    <path
                                        d="M18 21.171A3 3 0 0 0 18 26.829Z"
                                        fill="#d89c76"
                                        data-fill-palette-color="accent"></path>
                                    <rect x="42"
                                          y="56"
                                          width="4"
                                          height="4"
                                          fill="#d89c76"
                                          data-fill-palette-color="accent"></rect>
                                    <path
                                        d="M44 34.917V14H20V34.917A3.086 3.086 0 0 0 23.083 38H40.917A3.086 3.086 0 0 0 44 34.917M30 27V18H32V26H35V28H30ZM23 22V18H25V22ZM39 31C39 33.816 35.774 36 33 36H31C28.226 36 25 33.816 25 31V30H39ZM40 22H38V18H40Z"
                                        fill="#d89c76"
                                        data-fill-palette-color="accent"></path>
                                    <rect x="42"
                                          y="46"
                                          width="4"
                                          height="8"
                                          fill="#d89c76"
                                          data-fill-palette-color="accent"></rect>
                                    <path
                                        d="M46 21.171V26.829A3 3 0 0 0 46 21.171"
                                        fill="#d89c76"
                                        data-fill-palette-color="accent"></path>
                                    <path
                                        d="M31 34H33A4.74 4.74 0 0 0 36.7 32H27.3A4.74 4.74 0 0 0 31 34"
                                        fill="#d89c76"
                                        data-fill-palette-color="accent"></path>
                                </g>
                            </svg>
                        </g>
                    </svg>
                </g>
                <g id="text-0">
                    <path
                        d="M31.994 101.94v0c-0.44 1.277-0.944 2.408-1.511 3.394-0.575 0.99-1.16 1.846-1.755 2.567-0.591 0.73-1.135 1.32-1.63 1.772v0l-3.544-0.83c1.001-0.85 1.991-1.916 2.97-3.198 0.98-1.282 1.763-2.773 2.35-4.474v0c0.709-2.054 0.865-3.698 0.47-4.93-0.387-1.237-1.307-2.106-2.761-2.608v0l-0.332-0.115c-0.955-0.329-1.803-0.403-2.545-0.22-0.746 0.174-1.484 0.652-2.213 1.433-0.733 0.773-1.553 1.887-2.458 3.343v0c-1.163 1.834-2.27 3.238-3.321 4.213-1.059 0.979-2.167 1.566-3.324 1.761-1.15 0.197-2.446 0.047-3.887-0.45v0l-0.19-0.065c-2.175-0.75-3.608-2.04-4.299-3.87-0.689-1.836-0.535-4.202 0.464-7.098v0c0.654-1.896 1.404-3.445 2.25-4.646 0.848-1.207 1.654-2.149 2.418-2.826v0l3.265 0.776c-0.92 0.779-1.81 1.752-2.672 2.919-0.856 1.169-1.576 2.601-2.161 4.295v0c-0.462 1.34-0.679 2.482-0.651 3.425 0.037 0.939 0.288 1.698 0.753 2.276 0.466 0.578 1.122 1.013 1.969 1.305v0l0.076 0.026c0.86 0.297 1.659 0.367 2.399 0.213 0.733-0.157 1.48-0.621 2.242-1.392 0.759-0.764 1.641-1.927 2.647-3.49v0c1.129-1.796 2.193-3.18 3.193-4.151 1.006-0.969 2.078-1.554 3.216-1.755 1.14-0.208 2.478-0.047 4.014 0.482v0l0.436 0.151c2.396 0.826 3.946 2.228 4.651 4.204 0.707 1.97 0.531 4.491-0.529 7.563z"
                        fill="#d89c76"
                        data-fill-palette-color="primary"></path>
                    <path
                        d="M42.488 80.344v0c-1.576 2.642-3.486 4.22-5.732 4.733-2.242 0.508-4.701-0.036-7.377-1.632v0l-2.817-1.68c-2.665-1.589-4.3-3.495-4.905-5.718-0.603-2.213-0.12-4.635 1.449-7.265v0c1.576-2.642 3.481-4.223 5.714-4.743 2.24-0.517 4.692 0.019 7.356 1.608v0l2.817 1.68c2.676 1.596 4.322 3.504 4.937 5.724 0.615 2.22 0.134 4.651-1.442 7.293zM39.998 78.859v0c0.976-1.637 1.233-3.17 0.77-4.599-0.464-1.429-1.608-2.688-3.435-3.777v0l-3.144-1.876c-1.815-1.083-3.455-1.485-4.922-1.207-1.472 0.274-2.696 1.23-3.672 2.867v0c-0.966 1.62-1.222 3.145-0.767 4.576 0.449 1.428 1.58 2.683 3.395 3.766v0l3.144 1.875c1.826 1.089 3.48 1.496 4.961 1.219 1.481-0.277 2.704-1.225 3.67-2.844z"
                        fill="#d89c76"
                        data-fill-palette-color="primary"></path>
                    <path
                        d="M62.911 54.272l-2.403 2.628-9.843-9.006c-0.854-0.781-1.695-1.338-2.524-1.67-0.829-0.332-1.655-0.39-2.478-0.173-0.819 0.211-1.644 0.771-2.474 1.679v0c-0.763 0.834-1.264 1.699-1.504 2.594-0.249 0.896-0.278 1.78-0.088 2.652 0.185 0.867 0.551 1.687 1.096 2.457v0l-2.298-1.232 0.521-0.57c-0.552-0.823-0.926-1.722-1.121-2.698-0.194-0.966-0.133-1.975 0.186-3.025 0.313-1.055 0.955-2.113 1.925-3.174v0c1.147-1.253 2.313-2.048 3.5-2.385 1.178-0.336 2.378-0.276 3.601 0.181 1.218 0.462 2.476 1.286 3.773 2.473v0zM53.222 64.863l-2.404 2.627-15.822-14.476 2.404-2.628 3.687 3.578 0.25 0.025z"
                        fill="#d89c76"
                        data-fill-palette-color="primary"></path>
                    <path
                        d="M52.539 25.463l6.392 8.541-2.192 1.756-6.94-8.102z"
                        fill="#d89c76"
                        data-fill-palette-color="primary"></path>
                    <path
                        d="M82.465 41.411v0c-1.483 0.882-2.875 1.492-4.176 1.829-1.301 0.338-2.427 0.537-3.379 0.597v0l-1.971-2.667c1.203-0.07 2.463-0.255 3.778-0.554 1.312-0.306 2.666-0.874 4.063-1.705v0c1.42-0.844 2.354-1.707 2.802-2.588 0.448-0.881 0.408-1.767-0.122-2.658v0l-0.123-0.207c-0.345-0.581-0.766-0.98-1.261-1.199-0.496-0.219-1.182-0.262-2.06-0.128-0.872 0.13-2.045 0.434-3.518 0.913v0c-1.748 0.58-3.207 0.907-4.377 0.98-1.17 0.073-2.146-0.116-2.929-0.568-0.788-0.449-1.475-1.165-2.06-2.149v0l-0.102-0.172c-0.96-1.615-1.126-3.17-0.498-4.664 0.625-1.5 2.064-2.92 4.318-4.259v0c1.448-0.861 2.802-1.444 4.059-1.749 1.258-0.305 2.346-0.458 3.264-0.459v0l1.822 2.417c-1.1 0.008-2.273 0.169-3.518 0.482-1.242 0.319-2.524 0.871-3.846 1.657v0c-0.96 0.571-1.678 1.13-2.153 1.677-0.476 0.547-0.74 1.078-0.793 1.592-0.052 0.514 0.072 1.023 0.373 1.529v0l0.092 0.155c0.328 0.552 0.739 0.942 1.232 1.17 0.493 0.228 1.169 0.278 2.026 0.149 0.851-0.125 1.968-0.419 3.349-0.883v0c1.763-0.62 3.238-0.984 4.427-1.093 1.185-0.113 2.18 0.049 2.987 0.489 0.802 0.433 1.518 1.179 2.146 2.236v0l0.19 0.319c1.032 1.736 1.205 3.407 0.519 5.013-0.684 1.597-2.204 3.096-4.561 4.498z"
                        fill="#d89c76"
                        data-fill-palette-color="primary"></path>
                    <path
                        d="M114.776 28.411l-6.748 1.668-0.739-2.989 6.612-1.635c2.421-0.599 4.077-1.704 4.967-3.315 0.895-1.62 1.039-3.653 0.434-6.1v0l-1.502-6.077c-0.608-2.46-1.685-4.195-3.23-5.204-1.537-1.005-3.515-1.208-5.937-0.609v0l-6.631 1.639-0.734-2.97 6.768-1.673c3.525-0.871 6.414-0.625 8.666 0.74 2.254 1.371 3.803 3.764 4.647 7.179v0l1.512 6.115c0.841 3.402 0.585 6.238-0.769 8.508-1.352 2.277-3.791 3.851-7.316 4.723zM109.138 29.804l-3.495 0.865-6.741-27.265 3.496-0.864z"
                        fill="#d89c76"
                        data-fill-palette-color="primary"></path>
                    <path
                        d="M147.805 25.333l-3.53 0.079 0.034-5.208-0.143-0.548-0.154-6.83-0.008-1.253c-0.039-1.745-0.51-3.025-1.411-3.842-0.908-0.816-2.321-1.202-4.24-1.158v0c-1.538 0.035-2.943 0.287-4.217 0.757-1.267 0.47-2.392 1.007-3.375 1.611v0l0.253-3.036c0.554-0.347 1.212-0.696 1.973-1.048 0.761-0.345 1.634-0.639 2.619-0.881 0.984-0.243 2.068-0.378 3.252-0.404v0c1.538-0.035 2.849 0.123 3.933 0.473 1.085 0.35 1.969 0.869 2.654 1.556 0.678 0.687 1.181 1.525 1.511 2.514 0.33 0.989 0.509 2.099 0.537 3.329v0zM136.905 26.039v0c-2.126 0.048-3.769-0.43-4.928-1.434-1.16-1.011-1.761-2.475-1.805-4.394v0l-0.014-0.632c-0.045-1.979 0.534-3.47 1.735-4.473 1.201-1.004 3.132-1.726 5.791-2.167v0l6.767-1.116 0.259 2.593-6.527 1.09c-1.639 0.271-2.804 0.695-3.493 1.273-0.689 0.584-1.021 1.424-0.997 2.52v0l0.008 0.351c0.025 1.13 0.392 1.984 1.101 2.564 0.709 0.586 1.758 0.863 3.149 0.832v0c1.23-0.028 2.282-0.262 3.155-0.703 0.866-0.448 1.562-1.035 2.087-1.763 0.525-0.734 0.875-1.541 1.05-2.421v0l0.605 2.404-0.681 0.016c-0.186 0.941-0.551 1.822-1.095 2.643-0.55 0.815-1.324 1.481-2.323 1.999-0.999 0.511-2.28 0.784-3.844 0.818z"
                        fill="#d89c76"
                        data-fill-palette-color="primary"></path>
                    <path
                        d="M162.013 28.022v0c-1.635-0.279-2.908-0.75-3.819-1.415-0.912-0.658-1.508-1.522-1.786-2.594-0.277-1.078-0.29-2.359-0.036-3.842v0l2.276-13.348 3.471 0.591-2.206 12.934c-0.237 1.391-0.095 2.467 0.427 3.227 0.527 0.768 1.539 1.28 3.035 1.535v0c0.857 0.146 1.694 0.191 2.511 0.133 0.823-0.05 1.61-0.19 2.361-0.421v0l-0.841 2.96c-0.737 0.227-1.578 0.365-2.523 0.414-0.945 0.049-1.901-0.009-2.87-0.174zM170.145 10.411l-15.227-2.597 0.481-2.818 15.553 2.653zM162.182 6.509l-3.362-0.573 0.992-5.936 3.608 0.147z"
                        fill="#d89c76"
                        data-fill-palette-color="primary"></path>
                    <path
                        d="M188.109 35.532l-3.33-1.172 1.87-4.861 0.06-0.563 2.268-6.444 0.435-1.176c0.579-1.646 0.592-3.01 0.037-4.092-0.561-1.084-1.747-1.944-3.558-2.581v0c-1.451-0.511-2.855-0.771-4.213-0.781-1.351-0.008-2.593 0.097-3.726 0.316v0l1.308-2.751c0.641-0.129 1.379-0.223 2.216-0.284 0.834-0.054 1.755-0.02 2.762 0.1 1.007 0.12 2.068 0.377 3.185 0.77v0c1.451 0.511 2.622 1.121 3.513 1.832 0.891 0.711 1.536 1.508 1.933 2.393 0.391 0.882 0.567 1.844 0.526 2.886-0.041 1.042-0.265 2.143-0.674 3.304v0zM177.662 32.344v0c-2.006-0.706-3.374-1.733-4.105-3.082-0.728-1.355-0.774-2.938-0.136-4.748v0l0.209-0.596c0.657-1.867 1.725-3.058 3.204-3.573 1.478-0.515 3.539-0.509 6.183 0.017v0l6.725 1.347-0.673 2.517-6.492-1.285c-1.629-0.325-2.869-0.34-3.717-0.043-0.851 0.303-1.459 0.972-1.823 2.006v0l-0.116 0.331c-0.375 1.066-0.334 1.995 0.124 2.788 0.456 0.799 1.34 1.429 2.653 1.89v0c1.161 0.408 2.227 0.561 3.199 0.456 0.968-0.113 1.827-0.417 2.576-0.912 0.751-0.501 1.363-1.133 1.836-1.895v0l-0.282 2.464-0.643-0.227c-0.506 0.814-1.159 1.51-1.958 2.087-0.803 0.568-1.762 0.918-2.879 1.05-1.115 0.125-2.41-0.072-3.885-0.592z"
                        fill="#d89c76"
                        data-fill-palette-color="primary"></path>
                    <path
                        d="M211.258 50.774v0c-2.789-2.066-4.303-4.398-4.542-6.996-0.233-2.595 0.718-5.335 2.856-8.22v0l3.964-5.352c2.137-2.886 4.476-4.594 7.017-5.126 2.546-0.527 5.208 0.238 7.986 2.296v0c0.892 0.661 1.646 1.344 2.264 2.051 0.613 0.712 1.114 1.412 1.503 2.099 0.384 0.684 0.672 1.317 0.864 1.901v0l-1.771 2.895c-0.327-1.008-0.821-2.043-1.481-3.107-0.66-1.063-1.622-2.063-2.884-2.998v0c-1.897-1.405-3.744-1.9-5.542-1.483-1.799 0.407-3.465 1.644-4.997 3.713v0l-3.863 5.215c-1.524 2.058-2.22 4.019-2.086 5.882 0.138 1.858 1.177 3.506 3.117 4.943v0c1.252 0.927 2.492 1.563 3.719 1.906 1.232 0.347 2.396 0.518 3.49 0.512v0l-2.316 2.604c-0.605-0.015-1.304-0.105-2.098-0.268-0.785-0.165-1.618-0.445-2.498-0.84-0.882-0.404-1.783-0.946-2.702-1.627z"
                        fill="#d89c76"
                        data-fill-palette-color="primary"></path>
                    <path
                        d="M233.723 72.626l-2.379-2.649 9.924-8.915c0.861-0.773 1.497-1.556 1.908-2.349 0.412-0.792 0.55-1.609 0.415-2.449-0.13-0.836-0.607-1.711-1.429-2.627v0c-0.755-0.841-1.565-1.421-2.428-1.742-0.863-0.33-1.736-0.441-2.617-0.332-0.872 0.11-1.721 0.396-2.546 0.858v0l1.35-2.279 0.617 0.687c0.864-0.479 1.791-0.768 2.781-0.867 0.981-0.099 1.978 0.061 2.993 0.48 1.02 0.414 2.005 1.151 2.957 2.211v0c1.135 1.264 1.812 2.502 2.031 3.717 0.22 1.205 0.042 2.394-0.531 3.565-0.579 1.167-1.522 2.338-2.831 3.514v0zM224.131 61.948l-2.38-2.648 21.661-19.46 2.367 2.633-5.201 4.673-4.648 4.027-0.129 0.291z"
                        fill="#d89c76"
                        data-fill-palette-color="primary"></path>
                    <path
                        d="M245.161 92.349l-1.762-3.059 4.586-2.468 0.413-0.388 5.92-3.409 1.097-0.608c1.512-0.871 2.411-1.897 2.694-3.08 0.281-1.188-0.058-2.613-1.016-4.276v0c-0.768-1.333-1.663-2.445-2.686-3.338-1.02-0.887-2.03-1.616-3.032-2.189v0l2.786-1.234c0.57 0.32 1.192 0.73 1.865 1.229 0.668 0.503 1.344 1.128 2.029 1.876 0.685 0.748 1.323 1.634 1.914 2.66v0c0.768 1.333 1.258 2.559 1.47 3.679 0.213 1.12 0.182 2.145-0.093 3.074-0.278 0.924-0.772 1.768-1.482 2.532-0.71 0.764-1.598 1.453-2.664 2.067v0zM239.315 83.122v0c-1.061-1.843-1.429-3.514-1.104-5.012 0.331-1.502 1.328-2.732 2.991-3.69v0l0.548-0.316c1.715-0.988 3.301-1.195 4.758-0.622 1.457 0.573 3.016 1.921 4.678 4.043v0l4.223 5.404-2.151 1.471-4.086-5.206c-1.024-1.309-1.954-2.127-2.791-2.455-0.843-0.325-1.74-0.214-2.69 0.333v0l-0.305 0.176c-0.979 0.564-1.553 1.296-1.722 2.195-0.174 0.903 0.085 1.957 0.78 3.163v0c0.614 1.066 1.324 1.877 2.129 2.431 0.808 0.546 1.657 0.875 2.548 0.987 0.896 0.109 1.772 0.029 2.628-0.24v0l-1.82 1.684-0.34-0.591c-0.915 0.288-1.863 0.39-2.845 0.307-0.979-0.092-1.935-0.452-2.867-1.08-0.927-0.631-1.781-1.625-2.562-2.982z"
                        fill="#d89c76"
                        data-fill-palette-color="primary"></path>
                    <path
                        d="M249.612 106.107v0c-0.539-1.568-0.735-2.911-0.589-4.029 0.14-1.116 0.613-2.053 1.42-2.811 0.813-0.76 1.932-1.385 3.354-1.874v0l12.807-4.401 1.144 3.329-12.408 4.264c-1.334 0.459-2.21 1.099-2.628 1.922-0.422 0.831-0.386 1.964 0.108 3.399v0c0.283 0.822 0.645 1.578 1.087 2.268 0.438 0.698 0.939 1.321 1.502 1.87v0l-3.001 0.681c-0.553-0.538-1.077-1.21-1.573-2.015-0.496-0.805-0.904-1.673-1.223-2.603zM268.965 104.802l-5.02-14.609 2.703-0.929 5.128 14.922zM268.572 95.943l-1.108-3.226 5.685-1.975 1.6 3.237z"
                        fill="#d89c76"
                        data-fill-palette-color="primary"></path>
                    <path
                        d="M10.586 189.189v0c-0.457-1.314-0.767-2.554-0.932-3.722-0.165-1.167-0.241-2.231-0.228-3.192 0.02-0.962 0.087-1.786 0.204-2.47v0l3.399-1.585c-0.275 1.327-0.397 2.821-0.365 4.48 0.025 1.662 0.342 3.368 0.95 5.118v0c0.733 2.11 1.649 3.544 2.748 4.301 1.103 0.749 2.403 0.864 3.9 0.344v0l0.341-0.118c0.985-0.342 1.722-0.821 2.209-1.437 0.485-0.622 0.777-1.481 0.877-2.577 0.1-1.097 0.052-2.52-0.146-4.271v0c-0.227-2.222-0.223-4.064 0.013-5.526 0.233-1.469 0.753-2.651 1.56-3.548 0.807-0.896 1.953-1.602 3.437-2.118v0l0.189-0.066c2.242-0.779 4.229-0.645 5.96 0.404 1.728 1.042 3.11 3.053 4.146 6.035v0c0.68 1.958 1.06 3.692 1.138 5.2 0.074 1.517 0.023 2.795-0.154 3.834v0l-3.147 1.455c0.249-1.219 0.35-2.578 0.303-4.077-0.051-1.49-0.379-3.107-0.985-4.85v0c-0.481-1.383-1.03-2.445-1.648-3.187-0.625-0.739-1.31-1.194-2.057-1.366-0.753-0.17-1.562-0.105-2.428 0.196v0l-0.085 0.029c-0.884 0.307-1.578 0.757-2.08 1.349-0.494 0.596-0.803 1.447-0.928 2.553-0.123 1.112-0.096 2.617 0.082 4.516v0c0.226 2.18 0.243 3.979 0.05 5.399-0.191 1.426-0.684 2.584-1.479 3.476-0.788 0.89-1.975 1.61-3.56 2.161v0l-0.446 0.155c-2.47 0.858-4.619 0.713-6.448-0.435-1.827-1.142-3.29-3.295-4.39-6.46z"
                        fill="#d89c76"
                        data-fill-palette-color="primary"></path>
                    <path
                        d="M23.09 215.116v0c-1.631-2.718-2.135-5.219-1.511-7.505 0.624-2.286 2.315-4.256 5.074-5.912v0l2.889-1.735c2.746-1.649 5.274-2.207 7.582-1.674 2.309 0.533 4.275 2.152 5.9 4.858v0c1.631 2.718 2.138 5.217 1.519 7.5-0.619 2.282-2.301 4.248-5.047 5.896v0l-2.889 1.735c-2.758 1.656-5.292 2.222-7.603 1.698-2.311-0.523-4.282-2.144-5.914-4.861zM25.653 213.577v0c1.008 1.68 2.272 2.661 3.79 2.942 1.521 0.273 3.221-0.156 5.102-1.284v0l3.242-1.947c1.863-1.119 3.026-2.41 3.489-3.873 0.465-1.473 0.194-3.049-0.814-4.729v0c-1.002-1.668-2.263-2.646-3.786-2.933-1.513-0.285-3.201 0.132-5.064 1.25v0l-3.242 1.946c-1.88 1.129-3.056 2.431-3.527 3.908-0.462 1.478-0.192 3.052 0.81 4.72z"
                        fill="#d89c76"
                        data-fill-palette-color="primary"></path>
                    <path
                        d="M47.441 244.341l-2.488-2.7 10.108-9.31c0.88-0.811 1.527-1.624 1.939-2.44 0.413-0.825 0.547-1.667 0.402-2.525-0.149-0.863-0.654-1.761-1.515-2.696v0c-0.784-0.851-1.625-1.444-2.524-1.779-0.9-0.326-1.802-0.431-2.706-0.317-0.909 0.119-1.785 0.421-2.629 0.907v0l1.463-2.247 0.537 0.583c0.9-0.493 1.857-0.797 2.87-0.911 1.013-0.115 2.048 0.037 3.104 0.454 1.048 0.417 2.072 1.169 3.074 2.256v0c1.187 1.289 1.902 2.553 2.144 3.794 0.242 1.25 0.073 2.478-0.507 3.684-0.575 1.212-1.529 2.431-2.862 3.659v0zM37.424 233.466l-2.487-2.7 16.254-14.97 2.487 2.7-4.004 3.47-0.039 0.254z"
                        fill="#d89c76"
                        data-fill-palette-color="primary"></path>
                    <path
                        d="M76.185 228.971l-7.129 8.363-2.267-1.807 6.557-8.819z"
                        fill="#d89c76"
                        data-fill-palette-color="primary"></path>
                    <path
                        d="M70.982 261.574v0c-1.535-0.911-2.776-1.873-3.722-2.886-0.944-1.004-1.677-1.925-2.198-2.763v0l1.443-3.098c0.655 1.058 1.442 2.104 2.359 3.139 0.924 1.038 2.104 1.984 3.542 2.837v0c1.472 0.874 2.714 1.296 3.727 1.267 1.018-0.025 1.8-0.498 2.346-1.418v0l0.128-0.215c0.355-0.598 0.508-1.176 0.458-1.735-0.044-0.555-0.344-1.196-0.9-1.922-0.547-0.729-1.402-1.641-2.564-2.735v0c-1.385-1.296-2.395-2.456-3.032-3.48-0.646-1.021-0.959-2-0.939-2.937 0.025-0.934 0.338-1.906 0.939-2.919v0l0.102-0.172c0.986-1.662 2.309-2.58 3.968-2.754 1.664-0.171 3.658 0.433 5.981 1.812v0c1.495 0.887 2.693 1.824 3.593 2.81 0.897 0.991 1.57 1.9 2.021 2.727v0l-1.294 2.848c-0.546-0.993-1.268-1.977-2.166-2.954-0.901-0.971-2.034-1.86-3.397-2.669v0c-0.983-0.584-1.839-0.956-2.568-1.116-0.729-0.161-1.341-0.139-1.835 0.065-0.492 0.213-0.892 0.579-1.199 1.096v0l-0.092 0.156c-0.338 0.569-0.49 1.133-0.455 1.689 0.04 0.561 0.327 1.197 0.86 1.911 0.533 0.713 1.349 1.579 2.449 2.596v0c1.43 1.285 2.486 2.44 3.167 3.467 0.685 1.021 1.03 1.999 1.034 2.935 0.001 0.942-0.323 1.959-0.971 3.051v0l-0.195 0.328c-1.065 1.794-2.491 2.775-4.278 2.943-1.781 0.171-3.885-0.463-6.312-1.904z"
                        fill="#d89c76"
                        data-fill-palette-color="primary"></path>
                    <path
                        d="M109.404 276.025l-6.94-1.728 0.766-3.076 6.813 1.697c2.485 0.619 4.523 0.406 6.113-0.639 1.59-1.044 2.699-2.825 3.326-5.343v0l1.558-6.258c0.632-2.537 0.489-4.636-0.427-6.298-0.918-1.655-2.619-2.792-5.105-3.411v0l-6.842-1.704 0.761-3.056 6.969 1.735c3.634 0.905 6.149 2.523 7.546 4.856 1.391 2.331 1.649 5.252 0.775 8.762v0l-1.571 6.307c-0.872 3.504-2.471 5.966-4.795 7.386-2.331 1.418-5.313 1.675-8.947 0.77zM103.603 274.58l-3.601-0.896 6.992-28.081 3.601 0.897z"
                        fill="#d89c76"
                        data-fill-palette-color="primary"></path>
                    <path
                        d="M147.549 279.785l-3.651-0.084 0.285-5.362-0.127-0.564 0.163-7.05 0.06-1.283c0.042-1.798-0.386-3.139-1.282-4.023-0.896-0.877-2.33-1.338-4.302-1.384v0c-1.584-0.037-3.044 0.157-4.378 0.581-1.327 0.417-2.513 0.918-3.556 1.503v0l0.413-3.121c0.583-0.334 1.273-0.663 2.069-0.985 0.803-0.323 1.716-0.582 2.738-0.779 1.028-0.204 2.151-0.291 3.367-0.264v0c1.584 0.037 2.927 0.258 4.028 0.665 1.101 0.413 1.987 0.989 2.659 1.728 0.672 0.745 1.153 1.632 1.443 2.662 0.297 1.037 0.431 2.187 0.402 3.45v0zM136.286 279.996v0c-2.193-0.051-3.862-0.621-5.007-1.711-1.145-1.09-1.695-2.624-1.649-4.604v0l0.015-0.651c0.047-2.039 0.714-3.545 2.001-4.519 1.28-0.974 3.298-1.626 6.055-1.957v0l7.023-0.831 0.138 2.672-6.771 0.817c-1.697 0.202-2.913 0.585-3.648 1.15-0.735 0.565-1.116 1.416-1.143 2.552v0l-0.008 0.361c-0.027 1.163 0.31 2.061 1.011 2.692 0.701 0.638 1.77 0.974 3.207 1.007v0c1.264 0.029 2.355-0.166 3.275-0.586 0.913-0.414 1.658-0.985 2.236-1.714 0.572-0.729 0.969-1.543 1.191-2.441v0l0.504 2.5-0.702-0.016c-0.236 0.964-0.652 1.854-1.246 2.67-0.601 0.816-1.429 1.465-2.483 1.949-1.054 0.477-2.387 0.697-3.999 0.66z"
                        fill="#d89c76"
                        data-fill-palette-color="primary"></path>
                    <path
                        d="M165.822 277.665v0c-1.681 0.286-3.076 0.262-4.184-0.073-1.114-0.326-1.989-0.964-2.625-1.914-0.636-0.95-1.084-2.19-1.344-3.719v0l-2.338-13.756 3.57-0.606 2.266 13.33c0.242 1.424 0.747 2.42 1.515 2.988 0.775 0.567 1.933 0.719 3.476 0.457v0c0.883-0.15 1.714-0.393 2.491-0.729 0.778-0.329 1.493-0.732 2.144-1.209v0l0.192 3.163c-0.638 0.475-1.408 0.897-2.308 1.267-0.901 0.363-1.853 0.63-2.855 0.801zM167.732 257.775l-15.693 2.667-0.494-2.908 16.019-2.722zM158.656 256.692l-3.461 0.588-1.059-6.107 3.559-1.094z"
                        fill="#d89c76"
                        data-fill-palette-color="primary"></path>
                    <path
                        d="M195.498 268.299l-3.445 1.208-1.625-5.117-0.318-0.483-2.334-6.654-0.397-1.222c-0.595-1.697-1.468-2.802-2.618-3.312-1.148-0.504-2.652-0.43-4.514 0.222v0c-1.496 0.525-2.793 1.22-3.891 2.088-1.095 0.859-2.027 1.746-2.798 2.661v0l-0.714-3.066c0.428-0.518 0.957-1.069 1.589-1.652 0.638-0.585 1.4-1.15 2.286-1.695 0.89-0.553 1.91-1.031 3.058-1.434v0c1.496-0.525 2.83-0.791 4.004-0.798 1.176-0.001 2.208 0.225 3.097 0.678 0.891 0.46 1.654 1.12 2.29 1.982 0.644 0.866 1.175 1.895 1.593 3.087v0zM185.034 272.469v0c-2.07 0.726-3.833 0.781-5.289 0.164-1.456-0.616-2.512-1.858-3.166-3.725v0l-0.216-0.616c-0.675-1.925-0.582-3.569 0.278-4.934 0.854-1.363 2.513-2.685 4.976-3.966v0l6.278-3.255 1.072 2.452-6.048 3.152c-1.517 0.787-2.52 1.575-3.008 2.363-0.489 0.788-0.545 1.718-0.169 2.791v0l0.119 0.34c0.385 1.098 1.017 1.819 1.896 2.163 0.881 0.35 2 0.287 3.357-0.189v0c1.193-0.418 2.145-0.986 2.857-1.703 0.708-0.709 1.204-1.507 1.488-2.393 0.278-0.884 0.362-1.785 0.253-2.704v0l1.354 2.162-0.663 0.232c0.119 0.986 0.044 1.965-0.224 2.938-0.275 0.975-0.82 1.875-1.636 2.7-0.818 0.819-1.988 1.494-3.509 2.028z"
                        fill="#d89c76"
                        data-fill-palette-color="primary"></path>
                    <path
                        d="M224.534 251.108v0c-2.882 2.119-5.639 2.902-8.271 2.347-2.631-0.564-5.042-2.335-7.233-5.314v0l-4.064-5.527c-2.191-2.979-3.162-5.801-2.914-8.466 0.254-2.669 1.814-5.057 4.68-7.164v0c0.927-0.681 1.833-1.215 2.719-1.601 0.882-0.392 1.722-0.673 2.518-0.843 0.791-0.166 1.5-0.257 2.129-0.271v0l2.321 2.614c-1.094 0.024-2.266 0.197-3.516 0.518-1.246 0.327-2.52 0.969-3.824 1.928v0c-1.956 1.438-3.006 3.107-3.153 5.008-0.141 1.897 0.575 3.914 2.148 6.053v0l3.958 5.382c1.565 2.128 3.286 3.407 5.162 3.836 1.871 0.434 3.811-0.088 5.82-1.566v0c1.288-0.947 2.288-1.973 3.003-3.079 0.714-1.106 1.232-2.201 1.555-3.286v0l1.871 3.069c-0.201 0.596-0.503 1.258-0.905 1.986-0.403 0.728-0.933 1.462-1.592 2.204-0.66 0.751-1.464 1.475-2.412 2.172z"
                        fill="#d89c76"
                        data-fill-palette-color="primary"></path>
                    <path
                        d="M249.897 225.334l-2.462 2.724-10.194-9.215c-0.888-0.803-1.757-1.372-2.608-1.708-0.86-0.335-1.71-0.392-2.551-0.169-0.845 0.227-1.694 0.812-2.546 1.755v0c-0.776 0.858-1.287 1.748-1.534 2.669-0.238 0.921-0.256 1.824-0.055 2.709 0.206 0.889 0.589 1.731 1.15 2.527v0l-2.472-1.14 0.639-0.706c-0.587-0.837-0.983-1.754-1.19-2.753-0.207-0.998-0.15-2.042 0.169-3.133 0.319-1.081 0.97-2.165 1.952-3.252v0c1.175-1.3 2.369-2.127 3.582-2.481 1.222-0.355 2.461-0.299 3.715 0.167 1.259 0.462 2.561 1.301 3.905 2.516v0zM239.982 236.303l-2.461 2.723-22.257-20.118 2.442-2.701 5.342 4.83 4.629 4.332 0.31 0.091z"
                        fill="#d89c76"
                        data-fill-palette-color="primary"></path>
                    <path
                        d="M264.036 201.874l-1.829 3.16-4.564-2.828-0.556-0.16-6.103-3.533-1.096-0.67c-1.557-0.901-2.938-1.172-4.143-0.811-1.2 0.364-2.294 1.4-3.283 3.107v0c-0.794 1.372-1.326 2.744-1.596 4.118-0.272 1.365-0.403 2.645-0.392 3.841v0l-2.538-1.863c-0.013-0.672 0.031-1.435 0.132-2.289 0.104-0.86 0.315-1.784 0.632-2.774 0.316-0.999 0.779-2.026 1.389-3.079v0c0.794-1.372 1.634-2.442 2.52-3.212 0.892-0.766 1.823-1.267 2.793-1.501 0.976-0.231 1.985-0.226 3.028 0.015 1.052 0.238 2.125 0.674 3.219 1.307v0zM258.805 211.85v0c-1.099 1.898-2.402 3.087-3.908 3.567-1.506 0.48-3.116 0.224-4.829-0.768v0l-0.564-0.326c-1.765-1.022-2.765-2.331-3-3.928-0.238-1.591 0.161-3.674 1.196-6.25v0l2.649-6.556 2.409 1.163-2.54 6.329c-0.639 1.585-0.888 2.835-0.747 3.752 0.142 0.916 0.704 1.66 1.688 2.229v0l0.313 0.181c1.007 0.583 1.956 0.719 2.847 0.408 0.897-0.308 1.705-1.084 2.425-2.327v0c0.633-1.094 0.987-2.145 1.061-3.153 0.076-0.999-0.066-1.928-0.427-2.786-0.364-0.852-0.887-1.591-1.568-2.217v0l2.434 0.76-0.351 0.608c0.732 0.671 1.313 1.463 1.742 2.376 0.426 0.919 0.598 1.957 0.514 3.115-0.089 1.154-0.537 2.428-1.344 3.823z"
                        fill="#d89c76"
                        data-fill-palette-color="primary"></path>
                    <path
                        d="M270.964 184.832v0c-0.558 1.611-1.25 2.823-2.075 3.633-0.822 0.82-1.802 1.28-2.941 1.381-1.139 0.101-2.441-0.102-3.907-0.609v0l-13.185-4.565 1.185-3.422 12.777 4.424c1.365 0.473 2.481 0.509 3.348 0.108 0.87-0.407 1.56-1.349 2.073-2.828v0c0.293-0.847 0.479-1.692 0.559-2.534 0.086-0.841 0.076-1.661-0.029-2.462v0l2.865 1.353c0.109 0.788 0.11 1.666 0.001 2.633-0.115 0.965-0.338 1.928-0.671 2.888zM254.443 173.593l-5.208 15.042-2.786-0.965 5.316-15.355zM249.13 181.03l-1.149 3.318-5.864-2.009 0.752-3.646z"
                        fill="#d89c76"
                        data-fill-palette-color="primary"></path>
                    <path
                        d="M2.489 141.678c0-6.143 4.98-11.123 11.124-11.124 6.143 0 11.123 4.98 11.123 11.124 0 6.143-4.98 11.123-11.123 11.123-6.143 0-11.123-4.98-11.124-11.123z"
                        fill="#d89c76"
                        data-fill-palette-color="primary"></path>
                    <path
                        d="M255.264 141.678c0-6.143 4.98-11.123 11.123-11.124 6.143 0 11.123 4.98 11.124 11.124 0 6.143-4.98 11.123-11.124 11.123-6.143 0-11.123-4.98-11.123-11.123z"
                        fill="#d89c76"
                        data-fill-palette-color="primary"></path>
                </g>


            </svg>